<?xml version="1.0" encoding="utf-8"?>
<!-- Generator: Adobe Illustrator 16.0.0, SVG Export Plug-In . SVG Version: 6.00 Build 0)  -->
<!DOCTYPE svg PUBLIC "-//W3C//DTD SVG 1.1//EN" "http://www.w3.org/Graphics/SVG/1.1/DTD/svg11.dtd">
<svg version="1.1" id="Layer_1" xmlns="http://www.w3.org/2000/svg" xmlns:xlink="http://www.w3.org/1999/xlink" x="0px" y="0px"
	 width="612px" height="792px" viewBox="0 0 612 792" enable-background="new 0 0 612 792" xml:space="preserve">
<path fill="#FFFFFF" d="M135.988,556.777c0.163,0,2.009-0.123,2.264-0.075c0.258,0.049,0.572-0.005,0.626,0.193
	c0.052,0.21,0,0.776,0.106,0.982c0.108,0.198,0.831,0.555,0.982,0.603c0.16,0.054,0.172,1.029,0.172,1.029s-0.27,0.05-0.217,0.356
	c0.054,0.307,0.179,1.277,0.271,1.487c0.106,0.206,0.43,0.438,0.841,0.459c0.656,0.012,1.022-0.228,1.06-0.479
	c0.054-0.26,0.146-1.392,0.146-1.542c0-0.156-0.253-0.206-0.215-0.361c0.054-0.151,0.203-0.82,0.203-0.82s0.918-0.42,0.961-0.883
	c0.055-0.458,0.279-7.034,0.279-7.034s0.475-0.109,0.621-0.156c0.177-0.066,0.108-0.595,0.092-0.718
	c1.056-0.125,2.145-0.135,3.212-0.163c1.294-0.026,2.425,0.055,3.58-0.328c0.718-0.231,1.606-1.094,1.311-1.935
	c-0.286-0.798-0.864-1.482-1.764-1.525c-0.647-0.028-1.434,0.203-2.047,0.296c-1.811,0.28-3.601,0.729-5.391,1.133
	c-0.447,0.097-0.895,0.189-1.337,0.286c-0.333,0.068-0.765-0.231-1.143-0.163c-0.501,0.088-0.808,0.524-1.042,0.928
	c-0.253,0.446-0.43,0.884-0.661,1.342c-0.054,0.104-0.038,1.823-0.038,1.823l-0.432,0.105l-0.017,0.799l-1.455,0.142
	c0,0,0.626-10.732,0.539-13.401c-0.076-2.668-0.739-16.57-1.384-19.133c-0.633-2.56-0.633-2.711-1.053-3.013
	c-0.42-0.308-1.131-0.661-1.606-0.803c-0.453-0.151-7.514-2.128-7.514-2.128s-12.183-2.643-16.764-2.907l-0.142-4.258
	c0,0,0.016-0.41-0.215-0.56c-1.37-0.897-5.498-1.629-13.515-1.504c-8.716,0.148-11.982,0.77-13.746,1.639
	c-0.782,0.393-0.661,0.366-0.699,0.673c-0.054,0.312,0.026,3.392,0.038,3.644c0,0.26,0.054,0.95,0.054,0.95v-0.033
	c0,0-14.556,2.038-24.637,6.258c-4.064,1.705-4.241,19.418-4.241,19.418s0.298,18.269,4.636,20.833c0,0,9.677,3.391,9.687,3.391
	c0.27,0.097,0.572,2.291,0.744,2.681c1.285,2.817,6.35,3.239,8.959,3.556c11.526,1.424,23.303,1.165,34.867,0.411
	c3.353-0.227,6.749-0.55,10.036-1.349c1.186-0.29,2.522-0.625,3.521-1.357c0.985-0.723,0.985-1.849,1.795-2.659
	c0.505-0.513,1.71-0.758,2.383-1.006C131.73,560.749,134.887,560.239,135.988,556.777"/>
<path fill="#FFFFFF" d="M135.988,556.777c0.163,0,2.009-0.123,2.264-0.075c0.258,0.049,0.572-0.005,0.626,0.193
	c0.052,0.21,0,0.776,0.106,0.982c0.108,0.198,0.831,0.555,0.982,0.603c0.16,0.054,0.172,1.029,0.172,1.029s-0.27,0.05-0.217,0.356
	c0.054,0.307,0.179,1.277,0.271,1.487c0.106,0.206,0.43,0.438,0.841,0.459c0.656,0.012,1.022-0.228,1.06-0.479
	c0.054-0.26,0.146-1.392,0.146-1.542c0-0.156-0.253-0.206-0.215-0.361c0.054-0.151,0.203-0.82,0.203-0.82s0.918-0.42,0.961-0.883
	c0.055-0.458,0.279-7.034,0.279-7.034s0.475-0.109,0.621-0.156c0.177-0.066,0.108-0.595,0.092-0.718
	c1.056-0.125,2.145-0.135,3.212-0.163c1.294-0.026,2.425,0.055,3.58-0.328c0.718-0.231,1.606-1.094,1.311-1.935
	c-0.286-0.798-0.864-1.482-1.764-1.525c-0.647-0.028-1.434,0.203-2.047,0.296c-1.811,0.28-3.601,0.729-5.391,1.133
	c-0.447,0.097-0.895,0.189-1.337,0.286c-0.333,0.068-0.765-0.231-1.143-0.163c-0.501,0.088-0.808,0.524-1.042,0.928
	c-0.253,0.446-0.43,0.884-0.661,1.342c-0.054,0.104-0.038,1.823-0.038,1.823l-0.432,0.105l-0.017,0.799l-1.455,0.142
	c0,0,0.626-10.732,0.539-13.401c-0.076-2.668-0.739-16.57-1.384-19.133c-0.633-2.56-0.633-2.711-1.053-3.013
	c-0.42-0.308-1.131-0.661-1.606-0.803c-0.453-0.151-7.514-2.128-7.514-2.128s-12.183-2.643-16.764-2.907l-0.142-4.258
	c0,0,0.016-0.41-0.215-0.56c-1.37-0.897-5.498-1.629-13.515-1.504c-8.716,0.148-11.982,0.77-13.746,1.639
	c-0.782,0.393-0.661,0.366-0.699,0.673c-0.054,0.312,0.026,3.392,0.038,3.644c0,0.26,0.054,0.95,0.054,0.95v-0.033
	c0,0-14.556,2.038-24.637,6.258c-4.064,1.705-4.241,19.418-4.241,19.418s0.298,18.269,4.636,20.833c0,0,9.677,3.391,9.687,3.391
	c0.27,0.097,0.572,2.291,0.744,2.681c1.285,2.817,6.35,3.239,8.959,3.556c11.526,1.424,23.303,1.165,34.867,0.411
	c3.353-0.227,6.749-0.55,10.036-1.349c1.186-0.29,2.522-0.625,3.521-1.357c0.985-0.723,0.985-1.849,1.795-2.659
	c0.505-0.513,1.71-0.758,2.383-1.006C131.73,560.749,134.887,560.239,135.988,556.777"/>
<path display="none" fill="#FFFFFF" d="M139.537,426.476c0.135,0,1.666-0.103,1.877-0.063c0.213,0.042,0.474-0.004,0.519,0.161
	c0.043,0.174,0,0.644,0.088,0.814c0.09,0.164,0.689,0.46,0.814,0.499c0.133,0.045,0.143,0.854,0.143,0.854s-0.223,0.041-0.18,0.296
	c0.045,0.254,0.149,1.059,0.225,1.233c0.088,0.17,0.356,0.362,0.697,0.38c0.544,0.01,0.847-0.188,0.879-0.397
	c0.045-0.216,0.121-1.153,0.121-1.278c0-0.13-0.209-0.171-0.178-0.3c0.045-0.125,0.168-0.68,0.168-0.68s0.762-0.349,0.797-0.731
	c0.045-0.38,0.231-5.833,0.231-5.833s0.394-0.09,0.515-0.129c0.146-0.055,0.09-0.493,0.076-0.595
	c0.875-0.104,1.778-0.112,2.663-0.136c1.073-0.021,2.011,0.045,2.968-0.271c0.595-0.192,1.332-0.906,1.086-1.604
	c-0.236-0.662-0.716-1.229-1.462-1.265c-0.536-0.023-1.188,0.168-1.697,0.244c-1.501,0.233-2.985,0.605-4.469,0.94
	c-0.37,0.08-0.742,0.156-1.108,0.236c-0.276,0.057-0.634-0.191-0.947-0.135c-0.415,0.072-0.669,0.435-0.863,0.77
	c-0.21,0.37-0.356,0.732-0.548,1.111c-0.045,0.087-0.031,1.512-0.031,1.512l-0.358,0.088l-0.014,0.662l-1.206,0.117
	c0,0,0.519-8.897,0.446-11.11c-0.062-2.212-0.613-13.737-1.147-15.861c-0.525-2.122-0.525-2.248-0.873-2.498
	c-0.349-0.254-0.938-0.548-1.332-0.666c-0.376-0.125-6.229-1.764-6.229-1.764s-10.1-2.19-13.898-2.41l-0.118-3.53
	c0,0,0.014-0.341-0.178-0.464c-1.136-0.744-4.558-1.351-11.205-1.247c-7.226,0.124-9.934,0.638-11.396,1.359
	c-0.648,0.325-0.548,0.303-0.579,0.558c-0.045,0.258,0.021,2.811,0.031,3.021c0,0.215,0.045,0.787,0.045,0.787v-0.027
	c0,0-12.067,1.689-20.425,5.188c-3.369,1.414-3.516,16.099-3.516,16.099s0.247,15.145,3.843,17.271c0,0,8.023,2.811,8.031,2.811
	c0.223,0.081,0.474,1.899,0.617,2.223c1.065,2.335,5.264,2.686,7.428,2.948c9.556,1.181,19.319,0.965,28.906,0.341
	c2.78-0.188,5.595-0.456,8.32-1.118c0.983-0.241,2.091-0.519,2.919-1.126c0.816-0.599,0.816-1.532,1.488-2.204
	c0.419-0.425,1.417-0.629,1.975-0.834C136.007,429.769,138.625,429.345,139.537,426.476"/>
<polygon fill="#27AAE1" points="56.675,620.432 68.066,620.432 68.066,669.392 83.116,669.392 83.116,679.045 56.675,679.045 "/>
<path fill="#27AAE1" d="M98.612,670.523c0.694,0.173,1.481,0.173,2.52,0.173c4.607,0,8.435-2.78,8.435-8.785
	c0-5.825-3.998-8.869-8.522-8.954h-2.433V670.523z M98.612,644.52h2.433c4.087,0,7.224-3.481,7.224-8.258
	c0-4.268-2-7.571-6.702-7.571c-1.216,0-2.26,0.088-2.954,0.352V644.52z M87.22,621.299c3.474-0.784,8.003-1.131,12.955-1.131
	c5.486,0,10.785,0.696,14.875,4.175c3.131,2.609,4.433,6.522,4.433,10.612c0,5.215-2.692,10.259-8.522,12.783v0.345
	c6.785,1.917,10.433,7.57,10.433,14.005c0,4.87-1.563,8.608-4.348,11.479c-3.479,3.828-9.387,5.918-19.217,5.918
	c-4.35,0-8.001-0.267-10.608-0.614V621.299z"/>
<path fill="#27AAE1" d="M125.512,620.432h11.396v26.349h0.17c0.957-2.435,1.916-5.044,2.869-7.565l7.829-18.783h12.52l-13.129,25.48
	l13.309,33.133h-12.442l-8.518-24.262l-2.607,4.78v19.481h-11.396V620.432z"/>
<path fill="#27AAE1" d="M177.391,595.098c0,6.04-4.943,10.982-10.983,10.982H50.743c-6.041,0-10.983-4.942-10.983-10.982V479.422
	c0-6.041,4.942-10.983,10.983-10.983h115.664c6.041,0,10.983,4.942,10.983,10.983V595.098z"/>
<path fill="#FFFFFF" d="M147.875,557.176c0.161,0,2.012-0.122,2.265-0.075c0.257,0.05,0.571-0.005,0.625,0.193
	c0.052,0.211,0,0.777,0.106,0.982c0.108,0.198,0.831,0.556,0.982,0.603c0.161,0.055,0.172,1.029,0.172,1.029
	s-0.269,0.05-0.217,0.356c0.054,0.308,0.179,1.278,0.271,1.488c0.106,0.205,0.43,0.437,0.841,0.458
	c0.656,0.012,1.022-0.227,1.061-0.479c0.054-0.26,0.146-1.391,0.146-1.542c0-0.156-0.252-0.205-0.215-0.361
	c0.054-0.151,0.203-0.819,0.203-0.819s0.916-0.421,0.961-0.883c0.055-0.459,0.279-7.035,0.279-7.035s0.475-0.108,0.621-0.156
	c0.177-0.065,0.108-0.593,0.092-0.718c1.056-0.122,2.145-0.135,3.212-0.163c1.294-0.025,2.428,0.055,3.58-0.328
	c0.718-0.231,1.605-1.093,1.311-1.934c-0.286-0.798-0.864-1.483-1.764-1.525c-0.647-0.028-1.433,0.205-2.047,0.295
	c-1.811,0.281-3.601,0.729-5.391,1.134c-0.446,0.097-0.895,0.188-1.336,0.285c-0.335,0.068-0.765-0.231-1.143-0.162
	c-0.501,0.087-0.808,0.523-1.039,0.928c-0.255,0.446-0.432,0.883-0.664,1.341c-0.054,0.104-0.038,1.823-0.038,1.823l-0.432,0.106
	l-0.017,0.798l-1.455,0.142c0,0,0.625-10.732,0.538-13.401c-0.076-2.668-0.739-16.57-1.384-19.132
	c-0.633-2.56-0.633-2.711-1.053-3.014c-0.42-0.307-1.131-0.661-1.606-0.803c-0.453-0.151-7.514-2.128-7.514-2.128
	s-12.183-2.643-16.764-2.906l-0.142-4.258c0,0,0.017-0.411-0.215-0.56c-1.37-0.896-5.498-1.63-13.515-1.505
	c-8.716,0.151-11.982,0.771-13.746,1.639c-0.782,0.393-0.661,0.366-0.699,0.674c-0.055,0.312,0.026,3.391,0.038,3.644
	c0,0.26,0.052,0.949,0.052,0.949v-0.033c0,0-14.553,2.038-24.632,6.258c-4.066,1.705-4.243,19.418-4.243,19.418
	s0.297,18.269,4.635,20.833c0,0,9.677,3.391,9.687,3.391c0.269,0.098,0.571,2.291,0.744,2.681c1.285,2.819,6.35,3.24,8.959,3.557
	c11.526,1.424,23.303,1.164,34.867,0.41c3.353-0.227,6.749-0.55,10.036-1.348c1.186-0.291,2.522-0.626,3.521-1.358
	c0.985-0.723,0.985-1.849,1.794-2.658c0.505-0.511,1.71-0.759,2.383-1.007C143.617,561.148,146.774,560.638,147.875,557.176"/>
<path fill="#8DC63F" d="M385.007,595.136c0,6.041-4.942,10.983-10.983,10.983H258.36c-6.041,0-10.983-4.942-10.983-10.983V479.46
	c0-6.04,4.942-10.982,10.983-10.982h115.664c6.041,0,10.983,4.942,10.983,10.982V595.136z"/>
<path fill="#FFFFFF" d="M289.304,490.336c0.388-2.458,3.04-3.039,5.035-3.076c3.009-0.055,5.757-0.071,8.787-0.126
	c3.632-0.063,6.867,0,9.864,0c7.039,0,14.178-0.092,21.229,0.071c2.976,0.059,5.367-0.303,7.965,0.248
	c0.293,0.063,1.845,1.19,2.017,2.883c0.076,0.522,0.421,14.432,0.421,14.432s2.706,0.235,3.214,0.318
	c0.603,0.102,1.487,0.22,1.563,1.077c0.03,0.512-0.194,5.597-0.194,5.597l-5.089,0.03c0,0-3.419,56.153-3.471,57.301
	c-0.066,1.181,0,3.272-0.723,4.706l-1.339,1.903c0,0,0.054,9.531-0.215,9.633c-3.04,1.138-6.469,2.878-9.768,1.684
	c0,0-8.872,0.479-10.166,0.479s-9.951-0.293-9.951-0.293s-5.013-0.215-6.123-0.215c-0.432,0-0.765,0.27-1.155,0.34
	c-0.529,0.076-1.11-0.033-1.618-0.108c-0.505-0.092-6.577-1.552-6.577-2.173l0.024-9.566c0,0-1.748-0.89-1.769-4.772
	c-0.033-4.026-2.673-59.268-2.673-59.268l-5.597-0.248c0,0,0.066-4.075,0.066-5.438c0-0.729,0.624-0.885,0.895-0.986
	c0.279-0.098,4.817-0.442,4.817-0.442S289.023,492.098,289.304,490.336"/>
<path fill="#8DC63F" d="M278.632,632.64c0,4.248,2.406,7.202,5.911,9.044c2.581-1.384,4.146-5.074,4.146-8.579
	c0-4.063-1.386-7.755-4.883-7.755C280.296,625.35,278.632,628.948,278.632,632.64 M289.436,661.614c0-5.627-3.512-9.318-6.929-11.07
	c-3.042,2.121-5.165,5.812-5.165,10.429c0,5.169,2.123,9.597,6.274,9.597C287.4,670.569,289.436,666.689,289.436,661.614
	 M265.618,662.356c0-7.479,4.159-12.83,9.052-15.966v-0.182c-5.084-3.325-7.387-8.495-7.387-13.201
	c0-9.778,7.748-15.779,16.981-15.779c8.582,0,15.503,5.816,15.503,14.767c0,3.967-1.568,9.32-7.845,13.288v0.187
	c5.536,3.041,9.224,8.581,9.224,15.687c0,11.073-8.117,17.534-17.992,17.534C272.912,678.69,265.618,672.135,265.618,662.356"/>
<polygon fill="#8DC63F" points="306.591,620.533 317.749,620.533 317.749,668.495 332.486,668.495 332.486,677.952 306.591,677.952 
	"/>
<path fill="#8DC63F" d="M346.858,636.293l2.553,7.41c0.853,2.475,1.54,4.945,2.04,6.987h0.178c0.593-2.13,1.277-4.685,1.957-6.987
	l2.475-7.41h11.238l-9.455,20.448l9.63,21.21h-12.188l-2.805-7.835c-0.772-2.13-1.45-4.263-2.043-6.393h-0.175
	c-0.506,2.13-1.282,4.263-1.875,6.393l-2.555,7.835h-11.163l9.292-20.7l-9.207-20.958H346.858z"/>
<path fill="#CD2026" d="M587.264,596.354c0,6.041-4.943,10.983-10.983,10.983H460.626c-6.038,0-10.983-4.942-10.983-10.983V480.679
	c0-6.04,4.945-10.983,10.983-10.983H576.28c6.04,0,10.983,4.943,10.983,10.983V596.354z"/>
<path fill="#FFFFFF" d="M484.272,488.374c0,0,0.463-5.605,0.689-6.063s0.227-0.917,1.034-1.252
	c0.798-0.345,18.006-3.006,31.051-2.926c2.017,0.021,4.021,0.021,6.015,0.005c2.361-0.005,4.713,0.042,7.084,0.087
	c2.479,0.048,4.959,0.178,7.438,0.361c2.404,0.161,4.766,0.409,7.115,0.812c1.24,0.21,2.513,0.373,3.71,0.706
	c0.971,0.276,2.316,0.593,3.051,1.332c0.723,0.723,0.753,2,0.916,2.944c0.14,0.942,0.291,1.875,0.454,2.812
	c0,0.033,0.118,0.718,0.148,0.723c0.595,0.113,1.134,0.163,1.727,0.291c0.505,0.113,1.067,0.227,1.562,0.398
	c0.605,0.194,0.777,0.593,0.399,1.202c-0.033,0.06,0.356,0.562,0.291,0.799c-0.098,0.335-0.508,0.458-0.777,0.545
	c-0.721,0.227-1.367,0.333-2.123,0.518c-0.172,0.042-0.366,0.097-0.571,0.135l-0.56,10.068c0,0,2.976,0.173,3.547,0.404
	c0.571,0.227,0.345,0.403,0.345,0.976c0,0.566-0.173,5.84-0.173,5.84l-3.386,0.105c0,0-3.309,68.192-3.547,69.441
	c-0.227,1.268-0.56,5.152-3.309,7.665v7.677c0,0,0,0.799-0.335,0.912c-0.356,0.11-7.212,3.648-8.938,3.54
	c-1.863-0.106-3.396-1.202-4.463-1.941c-1.144-0.796-2.06-2.628-2.06-2.628s-8.463,0.916-10.069,0.916
	c-1.605,0-12.236-0.799-12.236-0.799s-1.25,2.362-2.286,3.316c-1.065,0.991-1.712,1.676-3.094,1.601
	c-5.443-0.31-10.296-3.554-10.296-3.554l-0.333-0.341l-0.12-7.896c0,0-2.855-3.429-3.32-7.885
	c-0.451-4.463-5.035-69.339-5.035-69.339h-3.547l-0.227-5.951c0,0-0.106-0.803,0.227-0.911c0.336-0.113,3.773-0.454,3.773-0.454
	l-0.689-9.96c0,0-2.975-0.681-3.189-1.03c-0.228-0.34-0.045-0.954-0.045-0.954s-0.388-0.571-0.031-0.916
	C480.435,489.366,484.272,488.374,484.272,488.374"/>
<path fill="#CD2026" d="M468.858,678.827v-7.803l5.764-7.367c7.455-9.488,13.576-17.386,13.576-25.634
	c0-4.617-2.576-7.895-7.368-7.895c-3.627,0-6.564,1.592-8.689,2.924l-2.041-9.047c2.662-1.682,7.628-3.547,12.865-3.547
	c12.592,0,16.672,8.426,16.672,16.677c0,10.819-6.741,19.515-13.389,27.234l-3.465,4.081v0.172h17.652v10.204H468.858z"/>
<path fill="#CD2026" d="M522.518,655.763v-11.798c0-3.104,0.348-6.476,0.619-9.491h-0.356c-1.327,3.193-2.482,5.765-3.989,8.962
	l-6.215,12.15v0.177H522.518z M522.518,678.827v-13.749h-19.786v-7.983l18.894-35.923h11.177v34.591h5.767v9.315h-5.767v13.749
	H522.518z"/>
<polygon fill="#CD2026" points="542.875,621.411 554.033,621.411 554.033,669.372 568.764,669.372 568.764,678.827 542.875,678.827 
	"/>
<path fill="#8DC63F" d="M375.739,319.98c0,2.404-1.967,4.369-4.367,4.369h-46.007c-2.4,0-4.366-1.964-4.366-4.369v-46.007
	c0-2.402,1.966-4.367,4.366-4.367h46.007c2.4,0,4.367,1.964,4.367,4.367V319.98z"/>
<path fill="#FFFFFF" d="M337.675,278.3c0.153-0.979,1.21-1.21,2.001-1.225c1.197-0.022,2.291-0.028,3.496-0.05
	c1.445-0.024,2.731,0,3.924,0c2.8,0,5.638-0.035,8.443,0.028c1.184,0.024,2.133-0.121,3.168,0.099
	c0.116,0.026,0.734,0.476,0.802,1.148c0.031,0.206,0.167,5.739,0.167,5.739s1.078,0.094,1.277,0.125
	c0.241,0.042,0.592,0.087,0.623,0.43c0.013,0.206-0.079,2.225-0.079,2.225l-2.021,0.013c0,0-1.361,22.334-1.382,22.79
	c-0.025,0.471,0,1.302-0.289,1.874l-0.53,0.754c0,0,0.02,3.792-0.085,3.833c-1.21,0.452-2.574,1.145-3.887,0.668
	c0,0-3.527,0.191-4.044,0.191c-0.514,0-3.957-0.116-3.957-0.116s-1.994-0.085-2.436-0.085c-0.171,0-0.307,0.107-0.46,0.136
	c-0.21,0.031-0.44-0.013-0.643-0.044c-0.201-0.035-2.614-0.618-2.614-0.863l0.008-3.808c0,0-0.694-0.353-0.703-1.896
	c-0.011-1.6-1.063-23.573-1.063-23.573l-2.227-0.098c0,0,0.026-1.62,0.026-2.164c0-0.29,0.248-0.353,0.355-0.393
	c0.113-0.04,1.917-0.175,1.917-0.175S337.563,278.999,337.675,278.3"/>
<path fill="#8DC63F" d="M235.226,308.11c0-5.785,3.211-9.923,6.997-12.345v-0.143c-3.933-2.571-5.71-6.567-5.71-10.206
	c0-7.562,5.993-12.203,13.127-12.203c6.635,0,11.99,4.498,11.99,11.418c0,3.069-1.217,7.209-6.067,10.274v0.145
	c4.283,2.354,7.135,6.638,7.135,12.13c0,8.562-6.278,13.56-13.913,13.56C240.864,320.74,235.226,315.67,235.226,308.11
	 M253.638,307.536c0-4.351-2.711-7.205-5.357-8.56c-2.35,1.639-3.992,4.491-3.992,8.062c0,3.998,1.642,7.42,4.851,7.42
	C252.069,314.458,253.638,311.459,253.638,307.536 M245.289,285.132c0,3.284,1.853,5.568,4.566,6.992
	c1.999-1.069,3.209-3.923,3.209-6.635c0-3.141-1.072-5.995-3.779-5.995C246.576,279.494,245.289,282.278,245.289,285.132"/>
<polygon fill="#8DC63F" points="266.905,275.771 275.531,275.771 275.531,312.859 286.929,312.859 286.929,320.169 266.905,320.169 
	"/>
<path fill="#8DC63F" d="M298.039,287.957l1.973,5.728c0.662,1.914,1.192,3.825,1.585,5.403h0.131
	c0.465-1.646,0.986-3.623,1.519-5.403l1.907-5.728h8.691l-7.31,15.809l7.449,16.403h-9.424l-2.17-6.059
	c-0.596-1.648-1.122-3.297-1.585-4.945h-0.131c-0.39,1.648-0.986,3.297-1.449,4.945l-1.982,6.059h-8.625l7.181-16.006l-7.113-16.206
	H298.039z"/>
<path fill="#CE2027" d="M566.192,319.98c0,2.404-1.967,4.369-4.367,4.369h-46.003c-2.4,0-4.366-1.964-4.366-4.369v-46.007
	c0-2.402,1.966-4.367,4.366-4.367h46.003c2.4,0,4.367,1.964,4.367,4.367V319.98z"/>
<path fill="#FFFFFF" d="M525.229,277.033c0,0,0.185-2.229,0.274-2.411c0.09-0.182,0.09-0.364,0.41-0.497
	c0.319-0.136,7.163-1.197,12.35-1.164c0.802,0.009,1.602,0.009,2.394,0.002c0.94-0.002,1.872,0.018,2.816,0.035
	c0.986,0.018,1.975,0.07,2.959,0.143c0.956,0.063,1.896,0.162,2.83,0.322c0.493,0.083,0.999,0.151,1.475,0.283
	c0.389,0.109,0.923,0.237,1.213,0.53c0.287,0.285,0.3,0.796,0.366,1.17c0.055,0.375,0.115,0.746,0.182,1.12
	c0,0.011,0.046,0.283,0.059,0.285c0.235,0.046,0.45,0.066,0.685,0.116c0.201,0.046,0.425,0.09,0.624,0.158
	c0.239,0.079,0.308,0.237,0.158,0.478c-0.013,0.024,0.141,0.226,0.116,0.32c-0.039,0.131-0.201,0.182-0.31,0.215
	c-0.289,0.09-0.545,0.134-0.846,0.206c-0.068,0.018-0.145,0.04-0.226,0.053l-0.224,4.007c0,0,1.182,0.068,1.412,0.16
	c0.226,0.09,0.136,0.16,0.136,0.388c0,0.224-0.068,2.321-0.068,2.321l-1.346,0.044c0,0-1.317,27.119-1.412,27.619
	c-0.09,0.502-0.224,2.049-1.317,3.049v3.051c0,0,0,0.318-0.131,0.362c-0.143,0.046-2.869,1.451-3.556,1.409
	c-0.741-0.044-1.351-0.478-1.775-0.771c-0.456-0.315-0.82-1.045-0.82-1.045s-3.364,0.364-4.004,0.364
	c-0.639,0-4.866-0.318-4.866-0.318s-0.496,0.94-0.91,1.319c-0.423,0.393-0.68,0.667-1.229,0.638
	c-2.166-0.125-4.097-1.416-4.097-1.416l-0.132-0.134l-0.048-3.141c0,0-1.136-1.363-1.32-3.137
	c-0.18-1.773-2.001-27.577-2.001-27.577h-1.411l-0.09-2.367c0,0-0.044-0.32,0.09-0.362c0.134-0.046,1.501-0.18,1.501-0.18
	l-0.273-3.963c0,0-1.185-0.27-1.271-0.41c-0.09-0.134-0.016-0.377-0.016-0.377s-0.155-0.23-0.013-0.366
	C523.702,277.428,525.229,277.033,525.229,277.033"/>
<path fill="#CE2027" d="M425.217,319.543v-6.032l4.459-5.697c5.763-7.339,10.497-13.443,10.497-19.822
	c0-3.566-1.994-6.104-5.696-6.104c-2.811,0-5.075,1.234-6.721,2.264l-1.578-6.997c2.058-1.302,5.9-2.745,9.949-2.745
	c9.736,0,12.893,6.515,12.893,12.896c0,8.369-5.215,15.089-10.354,21.059l-2.681,3.152v0.136h13.651v7.891H425.217z"/>
<path fill="#CE2027" d="M466.706,319.543v-10.631h-15.293v-6.175l14.609-27.777h8.639v26.749h4.461v7.203h-4.461v10.631H466.706z
	 M466.706,301.709v-9.125c0-2.396,0.271-5.004,0.48-7.336h-0.274c-1.03,2.47-1.92,4.456-3.086,6.929l-4.803,9.395v0.138H466.706z"/>
<polygon fill="#CE2027" points="482.447,275.147 491.075,275.147 491.075,312.233 502.467,312.233 502.467,319.543 482.447,319.543 
	"/>
<path fill="#27AAE1" d="M186.182,319.688c0.024,2.402-1.92,4.389-4.323,4.413l-45.999,0.491c-2.404,0.026-4.388-1.922-4.415-4.325
	l-0.489-45.999c-0.024-2.4,1.922-4.388,4.325-4.415l45.999-0.489c2.4-0.024,4.389,1.918,4.415,4.32L186.182,319.688z"/>
<path fill="#FFFFFF" d="M174.456,304.899c0.065,0,0.802-0.05,0.901-0.03c0.103,0.02,0.228-0.002,0.25,0.077
	c0.02,0.083,0,0.309,0.042,0.39c0.044,0.079,0.331,0.221,0.39,0.239c0.063,0.022,0.068,0.412,0.068,0.412s-0.107,0.02-0.085,0.14
	c0.022,0.123,0.072,0.509,0.107,0.592c0.042,0.081,0.171,0.173,0.333,0.182c0.263,0.004,0.41-0.09,0.428-0.191
	c0.02-0.103,0.055-0.552,0.055-0.611c0-0.063-0.099-0.081-0.085-0.145c0.022-0.059,0.081-0.325,0.081-0.325s0.364-0.168,0.381-0.353
	c0.022-0.182,0.112-2.799,0.112-2.799s0.188-0.042,0.248-0.062c0.068-0.026,0.042-0.237,0.035-0.285
	c0.421-0.048,0.853-0.053,1.278-0.064c0.515-0.011,0.965,0.02,1.423-0.131c0.287-0.092,0.64-0.434,0.524-0.77
	c-0.114-0.317-0.344-0.589-0.704-0.607c-0.257-0.011-0.57,0.081-0.813,0.118c-0.721,0.112-1.431,0.29-2.146,0.45
	c-0.175,0.039-0.355,0.074-0.53,0.114c-0.131,0.026-0.305-0.092-0.456-0.066c-0.197,0.035-0.32,0.21-0.41,0.371
	c-0.103,0.178-0.171,0.353-0.266,0.535c-0.022,0.04-0.013,0.724-0.013,0.724l-0.171,0.043l-0.009,0.318l-0.581,0.055
	c0,0,0.248-4.268,0.215-5.331c-0.031-1.061-0.292-6.591-0.548-7.608c-0.254-1.017-0.254-1.078-0.421-1.197
	c-0.167-0.123-0.451-0.265-0.64-0.322c-0.18-0.059-2.988-0.846-2.988-0.846s-4.844-1.05-6.668-1.155l-0.057-1.692
	c0,0,0.009-0.165-0.085-0.224c-0.543-0.357-2.186-0.649-5.373-0.599c-3.468,0.06-4.768,0.305-5.467,0.651
	c-0.313,0.158-0.265,0.147-0.278,0.267c-0.022,0.125,0.009,1.351,0.013,1.451c0,0.103,0.022,0.377,0.022,0.377v-0.013
	c0,0-5.789,0.811-9.798,2.488c-1.618,0.677-1.686,7.724-1.686,7.724s0.116,7.267,1.843,8.284c0,0,3.847,1.35,3.852,1.35
	c0.107,0.038,0.226,0.912,0.296,1.065c0.511,1.122,2.525,1.289,3.564,1.416c4.582,0.565,9.27,0.462,13.867,0.162
	c1.333-0.09,2.685-0.219,3.992-0.535c0.471-0.116,1.001-0.25,1.403-0.542c0.39-0.287,0.39-0.734,0.71-1.056
	c0.202-0.204,0.684-0.303,0.949-0.401C172.764,306.478,174.02,306.276,174.456,304.899"/>
<polygon fill="#27AAE1" points="42.825,274.646 51.742,274.646 51.742,312.971 63.52,312.971 63.52,320.527 42.825,320.527 "/>
<path fill="#27AAE1" d="M66.732,275.326c2.722-0.611,6.262-0.883,10.142-0.883c4.29,0,8.441,0.543,11.639,3.266
	c2.453,2.045,3.475,5.107,3.475,8.306c0,4.085-2.111,8.031-6.672,10.006v0.272c5.311,1.5,8.167,5.923,8.167,10.96
	c0,3.812-1.223,6.738-3.402,8.987c-2.725,2.995-7.352,4.627-15.043,4.627c-3.406,0-6.263-0.204-8.305-0.476V275.326z M75.648,293.5
	h1.907c3.2,0,5.649-2.723,5.649-6.464c0-3.336-1.565-5.92-5.241-5.92c-0.954,0-1.771,0.068-2.315,0.272V293.5z M75.648,313.854
	c0.544,0.136,1.16,0.136,1.973,0.136c3.608,0,6.604-2.177,6.604-6.874c0-4.562-3.13-6.944-6.67-7.012h-1.907V313.854z"/>
<path fill="#27AAE1" d="M96.703,274.646h8.919v20.626h0.133c0.75-1.907,1.502-3.95,2.249-5.922l6.125-14.704h9.805l-10.28,19.943
	l10.417,25.938h-9.735l-6.672-18.991l-2.041,3.744v15.248h-8.919V274.646z"/>
</svg>
